<?xml version="1.0" encoding="utf-8"?>
<!-- Generator: Adobe Illustrator 17.1.0, SVG Export Plug-In . SVG Version: 6.00 Build 0)  -->
<!DOCTYPE svg PUBLIC "-//W3C//DTD SVG 1.1//EN" "http://www.w3.org/Graphics/SVG/1.1/DTD/svg11.dtd">
<svg version="1.1" id="Layer_1" xmlns="http://www.w3.org/2000/svg" xmlns:xlink="http://www.w3.org/1999/xlink" x="0px" y="0px"
	 viewBox="0 0 400 90" enable-background="new 0 0 400 90" xml:space="preserve">
<g>
	<path fill="#CB232D" d="M324.621,3.609l0.338-0.115l6.792-2.301l0.338-0.115c0,0,1.25,3.297,1.625,5.456
		c0.377,2.159-0.263,2.111,0.661,4.447c0.927,2.339,1.922,4.747,1.922,4.747s-0.196,1.106-2.762,1.901
		c-2.523,0.927-3.349,0.171-3.349,0.171s-0.678-2.521-1.361-4.941c-0.688-2.42-1.166-1.988-2.179-3.93
		c-0.107-0.204-0.216-0.424-0.319-0.653C325.431,6.315,324.621,3.609,324.621,3.609z"/>
	<path fill="#FFFFFF" d="M327.964,13.427l1.747,5.104l4.932,1.996l2.597-4.617l-1.775-5.13l2.673-0.896l2.333,6.632l-2.745,5.099
		c2.187,6.389,6.444,8.495,9.461,9.282c0.573-2.577,3.091-4.517,6.11-4.517h2.315c0.241-3.575,1.16-6.84,2.56-9.492L356.22,7.59
		c-0.853-0.188-1.497-0.95-1.497-1.862c0-1.05,0.857-1.903,1.911-1.903c1.05,0,1.905,0.854,1.905,1.903
		c0,0.498-0.192,0.945-0.505,1.283l2.881,6.426c1.866-1.878,4.325-2.836,6.487-2.836c1.538,0,3.967,0.704,5.674,2.16l2.715-5.946
		c-0.311-0.338-0.503-0.787-0.503-1.283c0-1.052,0.853-1.907,1.907-1.907c1.052,0,1.905,0.855,1.905,1.907
		c0,0.914-0.64,1.674-1.497,1.862l-1.726,8.222c1.818,2.842,3.025,6.593,3.305,10.765h1.372c2.83,0,5.217,2.156,5.975,4.494
		l-0.033,0.204c10.137,5.322,10.189,18.406,10.189,18.406l4.325,3.897l0.062,7.025l-2.817,0.025l-0.019-5.392l-4.03-3.476
		l-3.94,3.54l0.035,5.429l-2.819-0.008l-0.082-7.031l4.234-3.95c-0.021-6.914-3.544-10.275-6.172-11.945l-0.816,5.151l-2.018,10.145
		c-0.673,2.367-1.689,4.136-3.905,5.054l-0.505,0.037l3.439,21.499c4.535,1.889,4.541,7.363,4.541,7.363h-15.996
		c0,0,0.004-5.099,4.082-7.153l-3.386-21.172l-0.103,0.006h-5.379l-1.477-0.033l-3.198,21.336c3.816,2.136,3.816,7.017,3.816,7.017
		h-15.996c0,0,0-5.73,4.854-7.49l3.186-21.258c-2.294-0.848-3.627-2.898-4.342-5.206l-3.843-15.452
		c-11.233-1.849-15.454-14.151-15.454-14.151l-5.345-2.303l-2.313-6.636L327.964,13.427z"/>
	<g>
		<path fill="#FFFFFF" d="M261.371,84.325c-0.196,1.788,1.094,3.396,2.883,3.594c1.79,0.196,3.398-1.092,3.6-2.883
			c0.194-1.79-1.096-3.398-2.885-3.598C263.178,81.242,261.567,82.532,261.371,84.325z M266.051,84.838
			c-0.087,0.797-0.803,1.368-1.602,1.281c-0.793-0.089-1.368-0.807-1.279-1.598c0.086-0.799,0.805-1.367,1.598-1.283
			C265.567,83.326,266.137,84.041,266.051,84.838z"/>
		<path fill="#FFFFFF" d="M331.329,84.325c-0.198,1.788,1.096,3.396,2.885,3.594c1.788,0.196,3.4-1.092,3.6-2.883
			c0.191-1.79-1.096-3.398-2.886-3.598C333.141,81.242,331.527,82.532,331.329,84.325z M336.01,84.838
			c-0.086,0.797-0.801,1.368-1.6,1.281c-0.793-0.089-1.366-0.807-1.279-1.598c0.088-0.799,0.803-1.367,1.598-1.283
			C335.524,83.326,336.095,84.041,336.01,84.838z"/>
		<rect x="267.13" y="83.259" fill="#FFFFFF" width="66.001" height="2.838"/>
	</g>
	<g>
		<path fill="#FFFFFF" d="M6.243,84.325c-0.196,1.788,1.094,3.396,2.885,3.594c1.788,0.196,3.396-1.092,3.598-2.883
			c0.194-1.79-1.098-3.398-2.885-3.598C8.05,81.242,6.439,82.532,6.243,84.325z M10.923,84.838
			c-0.088,0.797-0.803,1.368-1.602,1.281c-0.793-0.089-1.366-0.807-1.277-1.598c0.086-0.799,0.801-1.367,1.596-1.283
			C10.439,83.326,11.011,84.041,10.923,84.838z"/>
		<path fill="#FFFFFF" d="M76.201,84.325c-0.196,1.788,1.096,3.396,2.885,3.594c1.79,0.196,3.4-1.092,3.6-2.883
			c0.192-1.79-1.096-3.398-2.885-3.598C78.013,81.242,76.401,82.532,76.201,84.325z M80.882,84.838
			c-0.084,0.797-0.801,1.368-1.598,1.281c-0.795-0.089-1.368-0.807-1.279-1.598c0.085-0.799,0.801-1.367,1.594-1.283
			C80.396,83.326,80.967,84.041,80.882,84.838z"/>
		<rect x="12.002" y="83.259" fill="#FFFFFF" width="66.003" height="2.838"/>
	</g>
	<g>
		<path fill="#FFFFFF" d="M95.857,88.578v-0.896h0.809v-6.004h-0.809v-0.9h2.455c1.977,0,2.832,0.75,2.832,2.082
			c0,0.675-0.288,1.273-0.887,1.604c0.855,0.27,1.334,1.001,1.334,1.885c0,1.409-0.927,2.23-2.56,2.23H95.857z M98.792,84.117
			c0.867,0,1.302-0.554,1.302-1.258c0-0.927-0.659-1.182-1.363-1.182h-1.063v2.439H98.792z M98.835,87.682
			c0.884,0,1.709-0.196,1.709-1.258c0-0.779-0.511-1.409-1.466-1.409h-1.409v2.667H98.835z"/>
		<path fill="#FFFFFF" d="M112.737,80.777h2.651c1.302,0,2.333,0.614,2.333,2.127c0,0.958-0.642,1.901-1.586,2.187l1.917,3.159
			l-0.869,0.525l-1.99-3.534h-1.454v3.337h-1.001V80.777z M115.058,84.342c0.974,0,1.617-0.554,1.617-1.438
			c0-0.704-0.42-1.227-1.318-1.227h-1.619v2.665H115.058z"/>
		<path fill="#FFFFFF" d="M129.332,80.777h4.867v0.9h-3.862v2.336h3.188v0.898h-3.188v2.77h3.862v0.896h-4.867V80.777z"/>
		<path fill="#FFFFFF" d="M145.884,80.583l0.599,5.48h0.029l1.302-3.831h0.27l1.304,3.831h0.029l0.614-5.48l1.019,0.121
			l-1.123,8.071h-0.346l-1.629-4.807l-1.633,4.807h-0.344l-1.125-8.071L145.884,80.583z"/>
		<path fill="#FFFFFF" d="M162.822,87.682h1.094v-6.004h-1.094v-0.9h3.205v0.9h-1.108v6.004h1.108v0.896h-3.205V87.682z"/>
		<path fill="#FFFFFF" d="M178.295,80.777h1.244l3.023,6.574l0.031-0.029l-0.089-2.022v-4.523h1.003v7.801h-1.242l-3.027-6.572
			l-0.027,0.029l0.089,2.035v4.508h-1.005V80.777z"/>
		<path fill="#FFFFFF" d="M200.012,87.86c-0.642,0.509-1.6,0.853-2.395,0.853c-2.29,0-2.951-2.125-2.951-4.043
			c0-1.888,0.688-4.028,2.922-4.028c1.048,0,1.961,0.616,2.5,1.499l-0.853,0.554c-0.373-0.63-0.941-1.11-1.707-1.11
			c-1.543,0-1.812,1.934-1.812,3.118c0,1.211,0.268,3.067,1.841,3.067c0.509,0,1.019-0.136,1.454-0.404v-2.053h-1.872v-0.898h2.873
			V87.86z"/>
		<path fill="#FFFFFF" d="M233.129,87.083c-0.628,0.987-1.376,1.631-2.591,1.631c-2.274,0-2.993-2.095-2.993-4.028
			c0-3.116,1.647-4.043,2.904-4.043c1.213,0,1.919,0.63,2.473,1.662l-0.914,0.465c-0.328-0.628-0.779-1.184-1.543-1.184
			c-1.557,0-1.872,1.887-1.872,3.085c0,1.213,0.286,3.1,1.872,3.1c0.912,0,1.376-0.556,1.841-1.258L233.129,87.083z"/>
		<path fill="#FFFFFF" d="M249.575,84.686c0,0.628-0.045,4.028-2.772,4.028c-1.258,0-2.77-0.898-2.77-4.028
			c0-3.116,1.483-4.043,2.77-4.043C248.045,80.643,249.575,81.541,249.575,84.686z M245.081,84.686c0,1.139,0.21,3.085,1.722,3.085
			c1.514,0,1.722-1.946,1.722-3.085c0-1.153-0.208-3.1-1.722-3.1C245.291,81.586,245.081,83.534,245.081,84.686z"/>
	</g>
	<path fill="#CB232D" d="M7.759,34.757H-0.72v-3.532h20.727v3.532h-8.3v35.741H7.759V34.757z"/>
	<path fill="#CB232D" d="M49.197,39.821h4.889L65.98,65.672l0.119-0.12l-0.356-7.948V39.821h3.942v30.678h-4.885L52.908,44.651
		l-0.117,0.117l0.352,8.007v17.724h-3.946V39.821z"/>
	<path fill="#CB232D" d="M34.121,65.745V45.019c0.68-0.529,1.155-1.316,1.258-2.238c0.192-1.81-1.108-3.435-2.918-3.635
		c-1.806-0.2-3.435,1.106-3.635,2.916c-0.128,1.176,0.387,2.267,1.254,2.947v20.729c-0.676,0.529-1.151,1.316-1.254,2.239
		c-0.198,1.806,1.108,3.433,2.916,3.633c1.808,0.198,3.435-1.104,3.637-2.914C35.503,67.518,34.992,66.424,34.121,65.745z
		 M30.647,42.26c0.087-0.807,0.809-1.382,1.615-1.297c0.803,0.091,1.382,0.811,1.293,1.619c-0.074,0.698-0.632,1.225-1.304,1.293
		h-0.309C31.137,43.786,30.558,43.061,30.647,42.26z M33.555,68.496c-0.086,0.805-0.809,1.382-1.613,1.293
		c-0.805-0.089-1.384-0.813-1.295-1.613c0.087-0.807,0.809-1.384,1.615-1.296C33.065,66.966,33.645,67.689,33.555,68.496z"/>
	<path fill="#CB232D" d="M140.435,39.772h3.942v12.717h12.129V39.772h3.946v30.676h-3.946V56.022h-12.129v14.425h-3.942V39.772z"/>
	<path fill="#CB232D" d="M196.287,60.734c0.762,3.769,2.589,6.535,6.71,6.535c3.237,0,5.769-1.767,5.769-5.18
		c0-3.769-3.178-4.714-6.183-5.95c-4.473-1.884-8.712-3.064-8.712-8.829c0-5.182,4.183-8.069,9.01-8.069
		c5.124,0,8.125,2.945,9.361,7.713l-3.767,1.118c-0.709-3.001-2.296-5.122-5.655-5.122c-2.533,0-5.003,1.297-5.003,4.067
		c0,2.883,1.763,3.707,4.121,4.766l6.537,2.885c2.768,1.532,4.24,4.004,4.24,7.184c0,5.828-4.067,9.126-9.717,9.126
		c-5.713,0-9.305-3.653-10.246-9.126L196.287,60.734z"/>
	<path fill="#CB232D" d="M229.05,52.84h1.474l10.535-13.834l3.007,2.356l-10.189,12.894l11.952,14.425l-2.999,2.531l-12.427-15.131
		h-1.353v14.367h-3.944V39.772h3.944V52.84z"/>
	<path fill="#CB232D" d="M287.741,39.793h10.423c5.122,0,9.185,2.414,9.185,8.36c0,3.769-2.537,7.476-6.248,8.597l7.538,12.421
		l-3.409,2.061l-7.83-13.893h-5.717v13.129h-3.942V39.793z M296.867,53.806c3.825,0,6.354-2.179,6.354-5.653
		c0-2.768-1.646-4.829-5.18-4.829h-6.358v10.481H296.867z"/>
	<path fill="#CB232D" d="M320.838,60.734c0.762,3.769,2.587,6.535,6.706,6.535c3.24,0,5.773-1.767,5.773-5.18
		c0-3.769-3.178-4.714-6.181-5.95c-4.477-1.884-8.71-3.064-8.71-8.829c0-5.182,4.175-8.069,9.004-8.069
		c5.122,0,8.125,2.945,9.363,7.713l-3.769,1.118c-0.708-3.001-2.298-5.122-5.651-5.122c-2.535,0-5.007,1.297-5.007,4.067
		c0,2.883,1.769,3.707,4.127,4.766l6.531,2.885c2.766,1.532,4.242,4.004,4.242,7.184c0,5.828-4.067,9.126-9.721,9.126
		c-5.707,0-9.297-3.653-10.242-9.126L320.838,60.734z"/>
	<path fill="#CB232D" d="M179.555,65.695V45.184c0.679-0.527,1.153-1.314,1.256-2.236c0.196-1.812-1.108-3.437-2.916-3.637
		c-1.808-0.198-3.439,1.106-3.637,2.918c-0.13,1.176,0.385,2.268,1.254,2.947v20.513c-0.678,0.527-1.153,1.316-1.254,2.237
		c-0.2,1.806,1.106,3.433,2.914,3.633c1.81,0.198,3.439-1.104,3.639-2.914C180.939,67.468,180.424,66.375,179.555,65.695z
		 M176.079,42.427c0.086-0.807,0.811-1.384,1.613-1.297c0.807,0.09,1.384,0.811,1.297,1.617c-0.076,0.7-0.634,1.227-1.306,1.295
		h-0.311C176.569,43.953,175.988,43.228,176.079,42.427z M178.989,68.447c-0.088,0.803-0.811,1.38-1.617,1.291
		c-0.803-0.087-1.384-0.811-1.293-1.613c0.086-0.807,0.811-1.382,1.613-1.297C178.499,66.918,179.076,67.639,178.989,68.447z"/>
	<path fill="#CB232D" d="M126.855,65.549V37.202c0.754-0.525,1.295-1.349,1.403-2.333c0.198-1.812-1.106-3.437-2.916-3.637
		c-1.808-0.2-3.435,1.106-3.635,2.918c-0.136,1.24,0.445,2.381,1.403,3.05v26.018l-11.01-11.006
		c-0.002-1.658-1.232-3.085-2.918-3.271c-1.798-0.198-3.415,1.09-3.631,2.885l-0.047-0.047L93.63,63.658V37.405
		c0.919-0.496,1.59-1.419,1.714-2.535c0.196-1.812-1.108-3.437-2.916-3.637c-1.808-0.2-3.439,1.106-3.637,2.918
		c-0.12,1.102,0.323,2.132,1.094,2.819V65.79c-0.589,0.521-1.001,1.248-1.094,2.094c-0.198,1.806,1.108,3.431,2.916,3.631
		c1.808,0.198,3.435-1.104,3.637-2.914c0.047-0.434,0.004-0.853-0.109-1.25l12.172-12.176c0.327,0.157,0.677,0.274,1.056,0.317
		c0.507,0.054,0.997-0.018,1.446-0.177l11.935,11.933c-0.064,0.204-0.111,0.416-0.136,0.636c-0.198,1.806,1.106,3.431,2.916,3.631
		c1.808,0.198,3.433-1.104,3.635-2.914C128.395,67.359,127.814,66.216,126.855,65.549z M90.613,34.347
		c0.088-0.805,0.811-1.382,1.615-1.295c0.805,0.09,1.382,0.811,1.295,1.617c-0.076,0.7-0.634,1.225-1.306,1.293h-0.311
		C91.102,35.873,90.523,35.148,90.613,34.347z M93.523,68.403c-0.088,0.805-0.811,1.38-1.617,1.295
		c-0.803-0.089-1.382-0.815-1.293-1.615c0.076-0.704,0.634-1.229,1.308-1.297h0.307C93.033,66.875,93.61,67.596,93.523,68.403z
		 M123.53,34.347c0.085-0.805,0.811-1.382,1.613-1.295c0.807,0.09,1.384,0.811,1.297,1.617c-0.076,0.7-0.634,1.225-1.306,1.293
		h-0.311C124.017,35.873,123.44,35.148,123.53,34.347z M108.661,53.67c-0.803-0.089-1.384-0.813-1.293-1.615
		c0.086-0.805,0.811-1.382,1.613-1.297c0.807,0.09,1.384,0.813,1.296,1.621C110.191,53.182,109.466,53.758,108.661,53.67z
		 M126.439,68.403c-0.088,0.805-0.811,1.38-1.617,1.295c-0.805-0.089-1.382-0.815-1.293-1.615c0.031-0.297,0.149-0.564,0.328-0.776
		l0.138-0.138c0.23-0.212,0.519-0.35,0.84-0.383h0.307C125.95,66.875,126.527,67.596,126.439,68.403z"/>
	<path fill="#CB232D" d="M261.007,55.152h8.565c0.48,0.982,1.431,1.707,2.597,1.837c1.808,0.196,3.433-1.106,3.631-2.916
		c0.198-1.81-1.106-3.435-2.916-3.635c-1.423-0.159-2.723,0.626-3.312,1.847h-8.557c-0.22-0.453-0.54-0.849-0.937-1.16v-6.257
		c0.313-0.245,0.587-0.542,0.795-0.886h8.893c0.519,0.807,1.372,1.39,2.403,1.504c1.808,0.198,3.433-1.104,3.631-2.914
		c0.198-1.812-1.106-3.437-2.916-3.637c-1.347-0.148-2.591,0.542-3.221,1.652h-8.796c-0.513-0.848-1.388-1.46-2.447-1.578
		c-1.81-0.198-3.437,1.104-3.639,2.918c-0.128,1.176,0.387,2.267,1.256,2.947v6.244c-0.679,0.529-1.153,1.316-1.256,2.239
		c-0.128,1.176,0.387,2.267,1.256,2.947v9.023c-0.694,0.527-1.184,1.322-1.289,2.259c-0.198,1.806,1.108,3.433,2.916,3.633
		c1.32,0.144,2.535-0.515,3.18-1.58h8.876c0.513,0.846,1.388,1.458,2.449,1.574c1.808,0.2,3.433-1.104,3.631-2.914
		c0.198-1.81-1.106-3.435-2.916-3.635c-1.314-0.144-2.527,0.513-3.17,1.576h-8.882c-0.2-0.328-0.455-0.62-0.754-0.861V56.31
		C260.47,56.005,260.783,55.608,261.007,55.152z M271.072,53.552c0.058-0.542,0.406-0.974,0.871-1.176
		c0.019-0.01,0.039-0.017,0.058-0.023c0.064-0.025,0.128-0.045,0.196-0.062c0.027-0.006,0.054-0.01,0.084-0.016
		c0.068-0.012,0.136-0.018,0.206-0.021c0.012,0,0.022-0.002,0.033-0.002c0.016,0,0.027,0.002,0.041,0.004
		c0.041,0,0.084-0.004,0.126,0c0.037,0.004,0.072,0.016,0.105,0.023c0.012,0.002,0.022,0.004,0.031,0.006
		c0.729,0.152,1.24,0.83,1.156,1.59c-0.087,0.805-0.811,1.378-1.613,1.291C271.564,55.078,270.983,54.353,271.072,53.552z
		 M272.52,40.748c0.208,0,0.401,0.047,0.577,0.124v-0.004c0.579,0.247,0.956,0.844,0.882,1.503c-0.058,0.546-0.414,0.98-0.882,1.18
		v-0.088c-0.177,0.08-0.369,0.124-0.577,0.124c-0.783,0-1.419-0.636-1.419-1.419C271.101,41.383,271.737,40.748,272.52,40.748z
		 M271.931,66.607L271.931,66.607c0.002-0.002,0.004-0.002,0.006-0.002c0.105-0.049,0.218-0.082,0.334-0.105
		c0.031-0.004,0.064-0.004,0.095-0.008c0.052-0.006,0.103-0.016,0.153-0.016c0.027,0,0.053,0.008,0.078,0.008
		c0.031,0,0.058-0.006,0.089-0.004c0.037,0.004,0.072,0.018,0.107,0.023c0.01,0.002,0.018,0.004,0.027,0.008
		c0.731,0.15,1.242,0.828,1.158,1.588c-0.087,0.805-0.811,1.38-1.613,1.293c-0.156-0.016-0.299-0.062-0.436-0.124v-0.084
		c-0.488-0.224-0.83-0.713-0.83-1.287C271.101,67.322,271.443,66.83,271.931,66.607z M259.481,68.103
		c-0.087,0.805-0.813,1.378-1.617,1.293c-0.803-0.089-1.382-0.813-1.293-1.613c0.058-0.544,0.408-0.978,0.875-1.18
		c0.018-0.008,0.035-0.016,0.054-0.021c0.064-0.025,0.126-0.045,0.196-0.062c0.029-0.006,0.058-0.012,0.086-0.016
		c0.066-0.012,0.132-0.02,0.198-0.02c0.014,0,0.027-0.006,0.041-0.006c0.016,0,0.031,0.006,0.047,0.006c0.039,0,0.078-0.004,0.118,0
		c0.031,0.004,0.064,0.016,0.097,0.021c0.018,0.004,0.035,0.008,0.054,0.012C259.061,66.677,259.563,67.349,259.481,68.103z
		 M256.629,53.672c0-0.785,0.638-1.421,1.423-1.421c0.783,0,1.417,0.636,1.417,1.421c0,0.783-0.634,1.417-1.417,1.417
		C257.267,55.089,256.629,54.456,256.629,53.672z M259.514,42.445c-0.051,0.465-0.317,0.848-0.684,1.077h-0.171
		c-0.185,0.088-0.389,0.14-0.606,0.14c-0.218,0-0.42-0.052-0.605-0.14h-0.161c-0.463-0.29-0.746-0.822-0.682-1.398
		c0.058-0.544,0.408-0.978,0.875-1.18c0.016-0.006,0.031-0.012,0.049-0.02c0.066-0.025,0.134-0.047,0.204-0.062
		c0.025-0.006,0.051-0.01,0.078-0.016c0.068-0.012,0.136-0.02,0.206-0.021c0.014,0,0.025-0.002,0.037-0.002
		c0.016,0,0.029,0.002,0.045,0.002c0.039,0.002,0.08-0.002,0.121,0.002c0.035,0.004,0.066,0.016,0.099,0.021
		c0.016,0.004,0.033,0.008,0.047,0.01C259.09,41.014,259.594,41.689,259.514,42.445z"/>
</g>
</svg>
