<?xml version="1.0" encoding="UTF-8" standalone="no"?>
<!-- Created with Inkscape (http://www.inkscape.org/) -->

<svg
   xmlns:dc="http://purl.org/dc/elements/1.1/"
   xmlns:cc="http://creativecommons.org/ns#"
   xmlns:rdf="http://www.w3.org/1999/02/22-rdf-syntax-ns#"
   xmlns:svg="http://www.w3.org/2000/svg"
   xmlns="http://www.w3.org/2000/svg"
   xmlns:sodipodi="http://sodipodi.sourceforge.net/DTD/sodipodi-0.dtd"
   xmlns:inkscape="http://www.inkscape.org/namespaces/inkscape"
   width="76.651001"
   height="85.971001"
   id="svg2"
   version="1.1"
   inkscape:version="0.48.5 r10040"
   sodipodi:docname="white-robot.svg">
  <defs
     id="defs4" />
  <sodipodi:namedview
     id="base"
     pagecolor="#ffffff"
     bordercolor="#666666"
     borderopacity="1.0"
     inkscape:pageopacity="0.0"
     inkscape:pageshadow="2"
     inkscape:zoom="1.4142136"
     inkscape:cx="-166.005"
     inkscape:cy="-4.5699222"
     inkscape:document-units="px"
     inkscape:current-layer="g2986"
     showgrid="false"
     inkscape:window-width="1600"
     inkscape:window-height="838"
     inkscape:window-x="-8"
     inkscape:window-y="-8"
     inkscape:window-maximized="1"
     fit-margin-left="0.1"
     fit-margin-top="0.1"
     fit-margin-right="0.1"
     fit-margin-bottom="0.1"
     showborder="true"
     inkscape:showpageshadow="true"
     borderlayer="true" />
  <metadata
     id="metadata7">
    <rdf:RDF>
      <cc:Work
         rdf:about="">
        <dc:format>image/svg+xml</dc:format>
        <dc:type
           rdf:resource="http://purl.org/dc/dcmitype/StillImage" />
        <dc:title></dc:title>
      </cc:Work>
    </rdf:RDF>
  </metadata>
  <g
     inkscape:label="Layer 1"
     inkscape:groupmode="layer"
     id="layer1"
     transform="translate(-369.23187,-568.32382)">
    <g
       id="g2986"
       transform="translate(44.710873,567.34582)">
      <path
         id="path2988"
         d="m 324.621,3.609 0.338,-0.115 6.792,-2.301 0.338,-0.115 c 0,0 1.25,3.297 1.625,5.456 0.377,2.159 -0.263,2.111 0.661,4.447 0.927,2.339 1.922,4.747 1.922,4.747 0,0 -0.196,1.106 -2.762,1.901 -2.523,0.927 -3.349,0.171 -3.349,0.171 0,0 -0.678,-2.521 -1.361,-4.941 -0.688,-2.42 -1.166,-1.988 -2.179,-3.93 -0.107,-0.204 -0.216,-0.424 -0.319,-0.653 -0.896,-1.961 -1.706,-4.667 -1.706,-4.667 z"
         inkscape:connector-curvature="0"
         style="fill:#cb232d" />
      <path
         id="path2990"
         d="m 327.964,13.427 1.747,5.104 4.932,1.996 2.597,-4.617 -1.775,-5.13 2.673,-0.896 2.333,6.632 -2.745,5.099 c 2.187,6.389 6.444,8.495 9.461,9.282 0.573,-2.577 3.091,-4.517 6.11,-4.517 h 2.315 c 0.241,-3.575 1.16,-6.84 2.56,-9.492 L 356.22,7.59 c -0.853,-0.188 -1.497,-0.95 -1.497,-1.862 0,-1.05 0.857,-1.903 1.911,-1.903 1.05,0 1.905,0.854 1.905,1.903 0,0.498 -0.192,0.945 -0.505,1.283 l 2.881,6.426 c 1.866,-1.878 4.325,-2.836 6.487,-2.836 1.538,0 3.967,0.704 5.674,2.16 l 2.715,-5.946 c -0.311,-0.338 -0.503,-0.787 -0.503,-1.283 0,-1.052 0.853,-1.907 1.907,-1.907 1.052,0 1.905,0.855 1.905,1.907 0,0.914 -0.64,1.674 -1.497,1.862 l -1.726,8.222 c 1.818,2.842 3.025,6.593 3.305,10.765 h 1.372 c 2.83,0 5.217,2.156 5.975,4.494 l -0.033,0.204 c 10.137,5.322 10.189,18.406 10.189,18.406 l 4.325,3.897 0.062,7.025 -2.817,0.025 -0.019,-5.392 -4.03,-3.476 -3.94,3.54 0.035,5.429 -2.819,-0.008 -0.082,-7.031 4.234,-3.95 C 391.613,42.63 388.09,39.269 385.462,37.599 l -0.816,5.151 -2.018,10.145 c -0.673,2.367 -1.689,4.136 -3.905,5.054 l -0.505,0.037 3.439,21.499 c 4.535,1.889 4.541,7.363 4.541,7.363 h -15.996 c 0,0 0.004,-5.099 4.082,-7.153 l -3.386,-21.172 -0.103,0.006 h -5.379 l -1.477,-0.033 -3.198,21.336 c 3.816,2.136 3.816,7.017 3.816,7.017 h -15.996 c 0,0 0,-5.73 4.854,-7.49 l 3.186,-21.258 c -2.294,-0.848 -3.627,-2.898 -4.342,-5.206 L 348.416,37.443 C 337.183,35.594 332.962,23.292 332.962,23.292 l -5.345,-2.303 -2.313,-6.636 2.66,-0.926 z"
         inkscape:connector-curvature="0"
         style="fill:#ffffff" />
      <g
         id="g3000" />
    </g>
  </g>
</svg>
